<svg width="482" height="460" viewBox="0 0 482 460" fill="none" xmlns="http://www.w3.org/2000/svg">
<path d="M239.974 86.6545L260 83.022L265.004 98.4223L244.866 104.966L239.974 86.6545Z" fill="#FFC6C8"/>
<path d="M336.723 433.539L324.542 438.065L301.288 393.235L319.268 386.557L336.723 433.539Z" fill="#FFC6C8"/>
<path d="M344.217 444.195L304.939 458.787L304.754 458.287C303.248 454.233 303.414 449.746 305.215 445.814C307.017 441.882 310.307 438.826 314.361 437.319L338.352 428.406L344.217 444.195Z" fill="#37434B"/>
<path d="M216.848 446.191H203.853L197.671 396.069H216.85L216.848 446.191Z" fill="#FFC6C8"/>
<path d="M219.103 458.787H177.202V458.257C177.202 453.932 178.92 449.784 181.979 446.726C185.037 443.667 189.185 441.949 193.51 441.948H219.103V458.787Z" fill="#37434B"/>
<path d="M276.347 98.5733L272.098 90.0978L236.061 108.117L237.121 115.537L230.231 124.546C230.231 124.546 218.571 130.906 220.692 152.104L222.816 172.242L225.466 198.211L206.917 262.336L197.377 347.124L190.487 415.49L223.876 413.901L254.614 302.607L308.67 422.38L345.766 412.848L294.89 294.132L288.53 244.315C288.53 244.315 292.769 217.816 272.631 199.798L275.811 190.259V178.504L286.41 122.423L276.347 98.5733Z" fill="#37434B"/>
<path opacity="0.2" d="M277.331 219.767L254.013 302.441L255.212 302.779L278.53 220.105L277.331 219.767Z" fill="black"/>
<path d="M275.28 198.207H223.343V203.507H275.28V198.207Z" fill="#575656"/>
<path d="M223.346 206.687C224.517 206.687 225.466 204.314 225.466 201.387C225.466 198.461 224.517 196.088 223.346 196.088C222.175 196.088 221.225 198.461 221.225 201.387C221.225 204.314 222.175 206.687 223.346 206.687Z" fill="#575656"/>
<path d="M260.312 84.8646C274.003 77.3802 279.035 60.2137 271.551 46.5222C264.067 32.8307 246.9 27.7989 233.209 35.2833C219.517 42.7677 214.485 59.9341 221.97 73.6256C229.454 87.3171 246.62 92.349 260.312 84.8646Z" fill="#FFC6C8"/>
<path d="M290 49.9882C303.804 49.9882 314.994 38.798 314.994 24.9941C314.994 11.1902 303.804 0 290 0C276.196 0 265.006 11.1902 265.006 24.9941C265.006 38.798 276.196 49.9882 290 49.9882Z" fill="#37434B"/>
<path d="M321.718 22.3177C322.693 25.6261 322.974 29.1007 322.541 32.5227C322.108 35.9447 320.971 39.2401 319.202 42.2013C317.433 45.1625 315.071 47.7254 312.263 49.7289C309.455 51.7323 306.263 53.1327 302.887 53.8421C299.512 54.5514 296.026 54.5543 292.649 53.8505C289.272 53.1468 286.078 51.7516 283.267 49.7528C280.456 47.7541 278.089 45.195 276.315 42.2367C274.541 39.2785 273.399 35.985 272.96 32.5637C274.738 38.5909 278.72 43.7274 284.115 46.9498C289.51 50.1722 295.92 51.244 302.07 49.9518C308.219 48.6595 313.656 45.098 317.297 39.9767C320.939 34.8555 322.517 28.5505 321.718 22.3177Z" fill="#37434B"/>
<path d="M222.975 52.2311C222.241 58.6917 223.659 65.2139 227.008 70.7869C230.358 76.36 235.452 80.6728 241.501 83.0571C247.55 85.4414 254.217 85.764 260.468 83.975C266.719 82.186 272.206 78.3851 276.078 73.1615C279.95 67.9379 281.991 61.5832 281.884 55.082C281.778 48.5807 279.531 42.296 275.49 37.2016C271.45 32.1072 265.842 28.4875 259.536 26.9036C253.23 25.3196 246.577 25.8598 240.609 28.4403C235.674 24.4593 229.553 25.6913 224.578 29.8947C218.955 34.6429 217.282 37.9078 212.919 45.7198C217.209 46.3221 218.684 51.6288 222.975 52.2311Z" fill="#37434B"/>
<path d="M326.826 137.192C326.51 145.564 325.883 162.046 325.883 162.887C325.883 163.773 313.387 189.643 307.991 200.778C307.607 201.562 307.262 202.277 306.957 202.902C306.54 203.766 305.883 204.492 305.066 204.994C304.248 205.497 303.304 205.754 302.344 205.736L278.756 205.312C277.461 205.289 276.225 204.767 275.305 203.856C274.386 202.944 273.853 201.712 273.819 200.418L271.187 96.639C271.179 96.2968 271.238 95.9563 271.363 95.6375C271.488 95.3188 271.675 95.0283 271.914 94.783C272.153 94.5378 272.438 94.3428 272.754 94.2096C273.069 94.0765 273.408 94.0077 273.75 94.0075H304.171C305.456 94.0082 306.715 94.3709 307.803 95.054C308.892 95.7371 309.765 96.7129 310.325 97.8698L324.925 128.076C326.295 130.915 326.948 134.047 326.828 137.197L326.826 137.192Z" fill="#FF7400"/>
<path d="M273.408 193.299C267.355 189.632 261.915 185.036 257.289 179.68C246.54 167.591 240.004 152.341 238.66 136.221C237.46 122.429 240.197 112.177 246.794 105.751C255.18 97.5799 266.593 98.767 267.075 98.822L267.586 98.8794L275.323 105.422L273.135 108.008L266.217 102.154C264.099 102.048 255.452 102.029 249.137 108.203C243.323 113.89 240.937 123.218 242.041 135.929C243.32 151.277 249.528 165.8 259.739 177.329C264.144 182.425 269.308 186.811 275.048 190.334L273.408 193.299Z" fill="#FF7400"/>
<path d="M317.317 153.882L276.081 162.34L276.308 163.447L317.544 154.989L317.317 153.882Z" fill="#575656"/>
<path d="M290.136 93.9937L289.008 94.04L291.699 159.613L292.828 159.567L290.136 93.9937Z" fill="#575656"/>
<path d="M326.828 137.197C326.512 145.569 325.885 162.051 325.885 162.892C325.885 163.778 313.39 189.648 307.993 200.783L318.054 142.364C318.444 140.116 319.423 138.012 320.892 136.267C322.361 134.523 324.268 133.199 326.416 132.433C326.754 133.997 326.893 135.598 326.828 137.197Z" fill="#575656"/>
<path d="M265.012 259.627C265.903 258.48 266.531 257.15 266.853 255.733C267.174 254.316 267.181 252.846 266.873 251.426C266.565 250.006 265.949 248.671 265.069 247.515C264.189 246.359 263.066 245.41 261.78 244.734L263.824 222.118L250.38 217.522L247.941 249.51C246.96 251.745 246.831 254.263 247.578 256.587C248.325 258.911 249.897 260.881 251.997 262.126C254.096 263.371 256.579 263.805 258.977 263.345C261.374 262.885 263.521 261.565 265.011 259.631L265.012 259.627Z" fill="#FFC6C8"/>
<path d="M266.769 237.74L242.948 236.876L243.956 122.002C243.938 118.751 244.943 115.577 246.828 112.929C248.713 110.28 251.383 108.291 254.46 107.242C257.336 106.287 260.442 106.285 263.319 107.235C266.583 108.338 269.386 110.497 271.287 113.371C273.187 116.244 274.077 119.669 273.815 123.104L266.769 237.74Z" fill="#F7F7F7"/>
<path d="M101.273 457.131C101.273 457.131 85.3878 418.03 133.043 388.704L101.273 457.131Z" fill="#FF7400"/>
<path d="M118.209 456.42C118.209 456.42 113.363 428.556 75.8577 428.79L118.209 456.42Z" fill="#FF7400"/>
<path d="M440.027 457.131C440.027 457.131 419.035 405.472 482 366.73L440.027 457.131Z" fill="#FF7400"/>
<path d="M414.217 456.192C414.217 456.192 407.816 419.372 358.265 419.688L414.217 456.192Z" fill="#FF7400"/>
<path d="M475.741 459.178H1.15274C0.839032 459.154 0.546069 459.012 0.332361 458.781C0.118653 458.55 0 458.247 0 457.932C0 457.618 0.118653 457.315 0.332361 457.084C0.546069 456.853 0.839032 456.711 1.15274 456.687H475.741C475.913 456.673 476.086 456.696 476.248 456.752C476.411 456.809 476.56 456.898 476.687 457.015C476.813 457.132 476.914 457.274 476.983 457.432C477.052 457.59 477.087 457.76 477.087 457.932C477.087 458.105 477.052 458.275 476.983 458.433C476.914 458.591 476.813 458.732 476.687 458.849C476.56 458.966 476.411 459.056 476.248 459.113C476.086 459.169 475.913 459.192 475.741 459.178Z" fill="#575656"/>
</svg>
