<svg width="645" height="548" viewBox="0 0 645 548" fill="none" xmlns="http://www.w3.org/2000/svg">
<path d="M121.212 284.376C121.212 285.059 121.19 285.736 121.146 286.408C120.898 290.282 119.919 294.075 118.262 297.585C118.249 297.615 118.234 297.642 118.22 297.671C118.143 297.834 118.063 297.996 117.982 298.157C117.489 299.15 116.942 300.115 116.344 301.048C113.611 305.331 109.864 308.876 105.436 311.368C101.008 313.86 96.034 315.223 90.954 315.336L91.2605 332.947L95.2481 330.844L95.9609 332.2L91.2842 334.662L91.8562 367.37L91.8624 367.808L88.7745 368.496L88.7807 368.057L89.7527 315.338C85.6638 315.28 81.6273 314.409 77.8775 312.778C74.1278 311.146 70.7395 308.786 67.9094 305.834C67.715 305.634 67.5219 305.426 67.3337 305.22L67.3125 305.196C64.9549 302.627 63.0477 299.678 61.6713 296.473C61.7012 296.507 61.7336 296.539 61.7635 296.574C58.6543 289.304 58.4433 281.12 61.1737 273.699C63.9041 266.278 69.3692 260.182 76.4491 256.661L76.7731 256.503C83.7763 253.129 91.7912 252.51 99.2293 254.768C106.667 257.026 112.986 261.996 116.932 268.694C117.12 269.01 117.306 269.334 117.478 269.659C119.929 274.179 121.21 279.241 121.204 284.382L121.212 284.376Z" fill="#E5E5E5"/>
<path d="M117.045 297.686C139.462 297.686 157.634 279.514 157.634 257.097C157.634 234.681 139.462 216.508 117.045 216.508C94.6288 216.508 76.4566 234.681 76.4566 257.097C76.4566 279.514 94.6288 297.686 117.045 297.686Z" fill="#FF7400"/>
<path opacity="0.2" d="M87.076 229.988C83.29 238.844 82.7765 248.758 85.6271 257.958C88.4777 267.158 94.5068 275.044 102.637 280.208C110.767 285.373 120.468 287.477 130.008 286.147C139.547 284.817 148.302 280.138 154.709 272.947C152.396 278.357 148.935 283.2 144.564 287.14C140.194 291.08 135.019 294.023 129.398 295.764C123.778 297.506 117.846 298.005 112.013 297.226C106.181 296.447 100.587 294.41 95.6203 291.255C90.6534 288.1 86.4317 283.903 83.2477 278.955C80.0638 274.006 77.9938 268.425 77.181 262.597C76.3683 256.769 76.8323 250.834 78.5408 245.204C80.2494 239.573 83.1617 234.381 87.076 229.988Z" fill="#37434B"/>
<path d="M119.242 370.169L115.096 369.006L115.105 368.56L116.351 301.044L116.414 297.68V297.581L116.63 285.785L116.944 268.689L117.157 257.1H117.272L117.49 269.655L117.774 285.997L117.977 297.586V297.672L117.986 298.151L118.38 320.753L118.421 322.996L119.235 369.713L119.242 370.169Z" fill="#575656"/>
<path d="M123.613 318.004L116.903 321.537L117.838 323.313L124.548 319.781L123.613 318.004Z" fill="#575656"/>
<path d="M643.202 125.736C591.971 122.708 540.586 123.5 489.473 128.103C464.837 130.33 439.81 132.735 415.629 138.11C396.152 142.439 373.547 149.754 361.413 166.793C358.871 170.226 357.158 174.201 356.408 178.406C355.659 182.612 355.892 186.934 357.09 191.034C359.983 200.754 367.183 208.833 374.847 215.166C392.49 229.746 414.38 238.22 433.935 249.808C469.637 270.951 502.312 299.448 523.282 335.649C532.51 351.578 541.289 372.76 531.008 390.313C520.94 407.509 498.466 413.433 480.138 416.232C457.166 419.734 433.503 418.784 410.435 416.823C385.145 414.464 359.996 410.781 335.092 405.787C286.302 396.419 237.958 384.502 188.492 379.083C163.689 376.165 138.677 375.442 113.747 376.921C91.2318 378.44 68.5237 382.001 47.3733 390.12C31.074 396.375 13.7005 405.841 4.89666 421.625C-3.58944 436.842 -0.279743 454.388 8.96151 468.427C20.0807 485.318 37.418 496.894 55.4419 505.354C75.9656 514.986 97.9185 521.23 119.898 526.538C131.045 529.231 142.253 531.665 153.462 534.088C155.8 534.593 156.799 531.001 154.459 530.494C131.854 525.609 109.185 520.71 87.142 513.639C66.7443 507.096 45.8692 498.714 29.1649 484.978C15.6507 473.863 2.80193 457.628 3.59945 439.169C4.4032 420.561 20.0159 407.569 35.3183 399.571C54.4425 389.577 76.17 384.709 97.46 382.164C121.838 379.448 146.423 379.115 170.865 381.167C220.212 384.922 268.463 396.164 316.85 405.965C363.856 415.491 412.329 424.312 460.502 421.868C479.595 420.9 500.054 418.164 516.913 408.526C524.631 404.114 531.592 397.89 535.515 389.792C539.049 382.087 540.167 373.492 538.721 365.14C535.987 346.792 525.09 329.778 514.216 315.17C502.299 299.313 488.474 284.984 473.053 272.508C456.128 258.887 437.88 247 418.581 237.023C408.347 231.635 397.968 226.454 388.215 220.213C378.87 214.232 369.639 207.029 363.93 197.316C358.99 188.914 358.084 179.325 363.229 170.804C368.433 162.186 377.398 156.175 386.238 151.782C407.538 141.199 432.301 138.366 455.603 135.458C505.64 129.247 556.067 126.732 606.474 127.935C618.726 128.223 630.97 128.731 643.206 129.457C645.602 129.597 645.594 125.87 643.206 125.729L643.202 125.736Z" fill="#37434B"/>
<path d="M610.703 6.27607L618.442 0.0865854C612.43 -0.576352 609.959 2.70344 608.949 5.29663C604.252 3.34644 599.139 5.90223 599.139 5.90223L614.622 11.5235C613.842 9.4373 612.482 7.617 610.703 6.27607Z" fill="#575656"/>
<path d="M573.148 25.8714L580.886 19.6819C574.875 19.0189 572.404 22.2987 571.393 24.8919C566.697 22.9417 561.584 25.4975 561.584 25.4975L577.067 31.1188C576.286 29.0326 574.926 27.2123 573.148 25.8714Z" fill="#575656"/>
<path d="M610.703 56.8949L618.442 50.7054C612.43 50.0424 609.959 53.3222 608.949 55.9154C604.252 53.9652 599.139 56.521 599.139 56.521L614.624 62.1485C613.843 60.0623 612.483 58.242 610.705 56.9011L610.703 56.8949Z" fill="#575656"/>
<path d="M494.692 66.0639C507.568 66.0639 518.007 55.6254 518.007 42.7489C518.007 29.8724 507.568 19.4339 494.692 19.4339C481.815 19.4339 471.377 29.8724 471.377 42.7489C471.377 55.6254 481.815 66.0639 494.692 66.0639Z" fill="#FFB1C1"/>
<path d="M567.803 114.594H453.426C453.283 114.596 453.14 114.585 452.999 114.56L507.096 20.8657C507.426 20.282 507.905 19.7963 508.484 19.4584C509.063 19.1205 509.722 18.9424 510.392 18.9424C511.063 18.9424 511.721 19.1205 512.301 19.4584C512.88 19.7963 513.359 20.282 513.689 20.8657L549.992 83.7401L551.737 86.7483L567.803 114.594Z" fill="#FF7400"/>
<path d="M631.484 114.595H532.559L551.728 86.7508L553.108 84.7445L578.086 48.4536C578.528 47.8984 579.081 47.4424 579.711 47.1153C580.34 46.7882 581.032 46.5972 581.74 46.5549C582.448 46.5126 583.157 46.6199 583.821 46.8697C584.485 47.1196 585.089 47.5064 585.594 48.005C585.724 48.1467 585.844 48.2966 585.954 48.4536L631.484 114.595Z" fill="#FF7400"/>
<path d="M468.301 329.487C479.143 334.905 485.747 342.062 485.747 349.912C485.747 366.822 455.148 380.529 417.405 380.529C400.994 380.529 385.94 377.936 374.164 373.617C386.678 379.871 404.841 383.809 425.065 383.809C462.808 383.809 493.407 370.102 493.407 353.192C493.397 343.634 483.616 335.102 468.301 329.487Z" fill="#F1F1F1"/>
<path d="M492.416 341.102C504.65 347.217 512.098 355.292 512.098 364.149C512.098 383.23 477.571 398.697 434.981 398.697C416.464 398.697 399.477 395.771 386.183 390.897C400.303 397.954 420.798 402.398 443.618 402.398C486.208 402.398 520.734 386.929 520.734 367.85C520.733 357.071 509.698 347.437 492.416 341.102Z" fill="#F1F1F1"/>
<path d="M459.073 334.602C466.71 338.42 471.361 343.462 471.361 348.992C471.361 360.905 449.803 370.563 423.212 370.563C412.852 370.697 402.546 369.05 392.744 365.693C401.559 370.099 414.357 372.873 428.605 372.873C455.196 372.873 476.754 363.216 476.754 351.303C476.754 344.57 469.863 338.559 459.073 334.602Z" fill="#F1F1F1"/>
<path d="M188.319 547.83C195.565 547.83 201.44 541.955 201.44 534.709C201.44 527.462 195.565 521.587 188.319 521.587C181.072 521.587 175.197 527.462 175.197 534.709C175.197 541.955 181.072 547.83 188.319 547.83Z" fill="#FF7400"/>
</svg>
